<svg id="SVGRoot" width="180" height="48" version="1.1" viewBox="0 0 180 48" xmlns="http://www.w3.org/2000/svg">
 <path d="m165 19c-1.662 0-3 1.338-3 3v12c0 1.662 1.338 3 3 3s3-1.338 3-3v-5c-0.041-2 1.5393-4 4-4 1.662 0 3-1.338 3-3s-1.338-3-3-3c-0.40974 0-0.68663 0.01137-1 0-1.3396 0.0039-2.6615 0.30687-3.8691 0.88672-0.5429-0.54747-1.2953-0.88672-2.1308-0.88672z" style="fill:#2d2d2d;paint-order:stroke fill markers"/>
 <path d="m20 0s4 4 4 7c0 7-19 4-19 22 0 10 7 19 19 19s19-10 19-19c0-10-6-15-6-15s0 5-7 7c4-5 5-8 2-13-3.4513-5.7522-12-8-12-8zm2 21c1 6 10 7 10 13 0 4-3 8-8 8s-8-4-8-8 1-8 6-13z" style="fill:#2d2d2d"/>
 <path d="m54 9c-1.662 0-3 1.338-3 3v20s0 5 6 5h11c1.662 0 3-1.338 3-3s-1.338-3-3-3h-8c-2 0-3-1-3-3v-16c0-1.662-1.338-3-3-3z" style="fill:#2d2d2d;paint-order:stroke fill markers;stroke-width:1.2383"/>
 <path d="m81 19a9 9 0 0 0-9 9 9 9 0 0 0 9 9 9 9 0 0 0 4.5645-1.2559c0.54333 0.75893 1.4269 1.2559 2.4355 1.2559 1.662 0 3-1.338 3-3v-12c0-1.662-1.338-3-3-3-1.0086 0-1.8922 0.49693-2.4355 1.2559a9 9 0 0 0-4.5645-1.2559zm0 5a4 4 0 0 1 4 4 4 4 0 0 1-4 4 4 4 0 0 1-4-4 4 4 0 0 1 4-4z" style="fill:#2d2d2d;paint-order:stroke fill markers"/>
 <rect x="93" y="19" width="6" height="18" ry="3" style="fill:#2d2d2d;paint-order:stroke fill markers"/>
 <path d="m93 14.833c0-3 3-2.5 3-3.6667 0-0.5-0.63158-1.1667-0.63158-1.1667s1.3498 0.37463 1.8947 1.3333c0.47368 0.83333 0.31579 1.3333-0.31579 2.1667 1.1053-0.33333 1.1053-1.1667 1.1053-1.1667s0.94737 0.83333 0.94737 2.5c0 1.5-1.1053 3.1667-3 3.1667s-3-1.5-3-3.1667z" style="fill:#2d2d2d;stroke-width:.16222"/>
 <path d="m110 19c-4.9706 0-9 4.0294-9 9s4.0294 9 9 9c1.3887-0.0036 2.7578-0.32845 4-0.94922v1.9492c0 3-2 4-4 4h-4c-1.662 0-3 1.338-3 3s1.338 3 3 3h4c7 0 10-4 9.9746-9 0.0367-0.99963 0.02539-1.9999 0.02539-3v-14c0-1.662-1.338-3-3-3-1.0086 0-1.8922 0.49689-2.4356 1.2559-1.3822-0.81844-2.9582-1.2521-4.5644-1.2559zm0 5c2.2091 0 4 1.7909 4 4s-1.7909 4-4 4-4-1.7909-4-4 1.7909-4 4-4z" style="fill:#2d2d2d;paint-order:stroke fill markers"/>
 <path d="m131 12c-1.662 0-3 1.338-3 3v4h-3.0176c-1.6526 0-2.9824 1.3298-2.9824 2.9824v0.03516c0 1.6526 1.3298 2.9824 2.9824 2.9824h3.0176v9c0 1.662 1.338 3 3 3s3-1.338 3-3v-9h3.0176c1.6526 0 2.9824-1.3298 2.9824-2.9824v-0.03516c0-1.6526-1.3298-2.9824-2.9824-2.9824h-3.0176v-4c0-1.662-1.338-3-3-3z" style="fill:#2d2d2d;paint-order:stroke fill markers"/>
 <path d="m151 19c-4.9706 0-9 4.0294-9 9 6e-3 4.5332 3.4003 9 8 9 0.38963 0 4.6455 0.01559 5-1e-6 1 0 2-1 2-2.5s-1-2.5-2-2.5c-0.71362-9e-4 -2.3333 0-5 0-1.1618 0-2.4494-0.78427-2.459-2h10.959c1.155 0 1.4812-0.90292 1.5-2 0-4.9706-4.0294-9-9-9zm0 5c1.4272 0.0018 2.7454 0.76398 3.459 2h-6.918c0.71362-1.236 2.0318-1.9982 3.459-2z" style="fill:#2d2d2d;paint-order:stroke fill markers"/>
</svg>
