<?xml version="1.0" encoding="UTF-8"?>
<!-- Created with Inkscape (http://www.inkscape.org/) -->
<svg id="SVGRoot" width="24px" height="24px" version="1.1" viewBox="0 0 24 24" xmlns="http://www.w3.org/2000/svg" xmlns:cc="http://creativecommons.org/ns#" xmlns:dc="http://purl.org/dc/elements/1.1/" xmlns:rdf="http://www.w3.org/1999/02/22-rdf-syntax-ns#">
 <metadata>
  <rdf:RDF>
   <cc:Work rdf:about="">
    <dc:format>image/svg+xml</dc:format>
    <dc:type rdf:resource="http://purl.org/dc/dcmitype/StillImage"/>
    <dc:title/>
   </cc:Work>
  </rdf:RDF>
 </metadata>
 <path d="m9 0s2 2 2 3.5c0 3.5-9 3.5-9 11 0 5.5 3 9.5 9 9.5 2.0039 0 3.6654-0.50948 5-1.3457v-1.6543h-3v-0.5293c-0.56637 0.32221-1.2284 0.5293-2 0.5293-2.5 0-4-2-4-4s0.5-3.5 3-6c0.5 3 5 3 5 6h1v-3h3.957c-0.35755-4.3961-2.957-7-2.957-7s0.5 2.5-3 3.5c2-2.5 2.5-4 1-6.5-1.7256-2.8761-6-4-6-4zm8 15v3h-3v2h3v3h2v-3h3v-2h-3v-3z" opacity=".99" stroke-width=".5"/>
</svg>
