<?xml version="1.0" encoding="UTF-8" standalone="no"?>
<!-- Created with Inkscape (http://www.inkscape.org/) -->

<svg
   xmlns:dc="http://purl.org/dc/elements/1.1/"
   xmlns:cc="http://creativecommons.org/ns#"
   xmlns:rdf="http://www.w3.org/1999/02/22-rdf-syntax-ns#"
   xmlns:svg="http://www.w3.org/2000/svg"
   xmlns="http://www.w3.org/2000/svg"
   xmlns:sodipodi="http://sodipodi.sourceforge.net/DTD/sodipodi-0.dtd"
   xmlns:inkscape="http://www.inkscape.org/namespaces/inkscape"
   width="10px"
   height="10px"
   viewBox="0 0 10 10"
   version="1.1"
   id="SVGRoot"
   inkscape:version="0.92.4 (5da689c313, 2019-01-14)"
   sodipodi:docname="close.svg">
  <defs
     id="defs4137" />
  <sodipodi:namedview
     id="base"
     pagecolor="#ffffff"
     bordercolor="#666666"
     borderopacity="1.0"
     inkscape:pageopacity="0.0"
     inkscape:pageshadow="2"
     inkscape:zoom="51.2"
     inkscape:cx="5"
     inkscape:cy="5"
     inkscape:document-units="px"
     inkscape:current-layer="layer1"
     showgrid="true"
     inkscape:window-width="1920"
     inkscape:window-height="1017"
     inkscape:window-x="-8"
     inkscape:window-y="-8"
     inkscape:window-maximized="1"
     inkscape:grid-bbox="true">
    <inkscape:grid
       type="xygrid"
       id="grid4708" />
  </sodipodi:namedview>
  <metadata
     id="metadata4140">
    <rdf:RDF>
      <cc:Work
         rdf:about="">
        <dc:format>image/svg+xml</dc:format>
        <dc:type
           rdf:resource="http://purl.org/dc/dcmitype/StillImage" />
        <dc:title></dc:title>
      </cc:Work>
    </rdf:RDF>
  </metadata>
  <g
     inkscape:label="Layer 1"
     inkscape:groupmode="layer"
     id="layer1">
    <path
       style="opacity:1;fill:#000000;fill-opacity:1;fill-rule:evenodd;stroke-width:4;stroke-linecap:round;stroke-linejoin:round;stroke-miterlimit:4;stroke-dasharray:none;paint-order:stroke fill markers"
       d="M 5 0 C 2.238576 0 0 2.238576 0 5 C 0 7.761424 2.238576 10 5 10 C 7.761424 10 10 7.761424 10 5 C 10 2.238576 7.761424 0 5 0 z M 2.9902344 1.9902344 A 1.0001 1.0001 0 0 1 3.7070312 2.2929688 L 5 3.5859375 L 6.2929688 2.2929688 A 1.0001 1.0001 0 0 1 6.9804688 1.9902344 A 1.0001 1.0001 0 0 1 7.7070312 3.7070312 L 6.4140625 5 L 7.7070312 6.2929688 A 1.0001 1.0001 0 1 1 6.2929688 7.7070312 L 5 6.4140625 L 3.7070312 7.7070312 A 1.0001 1.0001 0 1 1 2.2929688 6.2929688 L 3.5859375 5 L 2.2929688 3.7070312 A 1.0001 1.0001 0 0 1 2.9902344 1.9902344 z "
       id="path2821" />
  </g>
</svg>
