<svg id="SVGRoot" width="24px" height="24px" version="1.1" viewBox="0 0 24 24" xmlns="http://www.w3.org/2000/svg">
 <path d="m9 0c-0.554 0-1 0.446-1 1v1h1v-0.44531c0-0.3073 0.24739-0.55469 0.55469-0.55469h4.8906c0.3073 0 0.55469 0.24739 0.55469 0.55469v0.44531h1v-1c0-0.554-0.446-1-1-1zm-6 3c-0.554 0-1 0.446-1 1v1c0 0.554 0.446 1 1 1h18c0.554 0 1-0.446 1-1v-1c0-0.554-0.446-1-1-1zm1 4v16c0 0.554 0.446 1 1 1h14c0.554 0 1-0.446 1-1v-16h-15zm3 2c0.554 0 1 0.446 1 1v11c0 0.554-0.446 1-1 1s-1-0.446-1-1v-11c0-0.554 0.446-1 1-1zm5 0c0.554 0 1 0.446 1 1v11c0 0.554-0.446 1-1 1s-1-0.446-1-1v-11c0-0.554 0.446-1 1-1zm5 0c0.554 0 1 0.446 1 1v11c0 0.554-0.446 1-1 1s-1-0.446-1-1v-11c0-0.554 0.446-1 1-1z" style="paint-order:stroke fill markers"/>
</svg>
