<?xml version="1.0" encoding="UTF-8" standalone="no"?>
<svg
   xmlns:dc="http://purl.org/dc/elements/1.1/"
   xmlns:cc="http://creativecommons.org/ns#"
   xmlns:rdf="http://www.w3.org/1999/02/22-rdf-syntax-ns#"
   xmlns:svg="http://www.w3.org/2000/svg"
   xmlns="http://www.w3.org/2000/svg"
   xmlns:sodipodi="http://sodipodi.sourceforge.net/DTD/sodipodi-0.dtd"
   xmlns:inkscape="http://www.inkscape.org/namespaces/inkscape"
   sodipodi:docname="frame-delete.svg"
   inkscape:version="1.0 (4035a4fb49, 2020-05-01)"
   width="24.0px"
   height="24.0px"
   viewBox="0 0 24.0 24.0"
   version="1.1"
   id="SVGRoot">
  <defs
     id="defs2462" />
  <sodipodi:namedview
     inkscape:window-maximized="1"
     inkscape:window-y="-8"
     inkscape:window-x="-8"
     inkscape:window-height="705"
     inkscape:window-width="1366"
     showgrid="true"
     inkscape:document-rotation="0"
     inkscape:current-layer="layer1"
     inkscape:document-units="px"
     inkscape:cy="10.841064"
     inkscape:cx="6.0892858"
     inkscape:zoom="15.839192"
     inkscape:pageshadow="2"
     inkscape:pageopacity="0.0"
     borderopacity="1.0"
     bordercolor="#666666"
     pagecolor="#ffffff"
     id="base">
    <inkscape:grid
       type="xygrid"
       id="grid3032" />
  </sodipodi:namedview>
  <metadata
     id="metadata2465">
    <rdf:RDF>
      <cc:Work
         rdf:about="">
        <dc:format>image/svg+xml</dc:format>
        <dc:type
           rdf:resource="http://purl.org/dc/dcmitype/StillImage" />
        <dc:title></dc:title>
      </cc:Work>
    </rdf:RDF>
  </metadata>
  <g
     id="layer1"
     inkscape:groupmode="layer"
     inkscape:label="Layer 1">
    <path
       id="rect2256-6-2"
       style="opacity:1;stroke-width:1.05409;paint-order:stroke fill markers;stop-color:#000000"
       d="m 2,2.0000003 c -1.108,0 -2,0.892 -2,2 V 20 c 0,1.108 0.892,2 2,2 h 11.974609 c 0.004,-0.505812 0.224212,-1.04294 0.625,-1.427734 L 15.171875,20 H 3 C 2.446,20 2,19.554 2,19 V 5.0000003 c 0,-0.554 0.446,-1 1,-1 h 18 c 0.554,0 1,0.446 1,1 V 13.992188 C 23,14 24,15 24,16 24.148438,11.789062 23.97102,6.9736942 24,4.0000003 c 0,-1.108 -0.892,-2 -2,-2 z m 9.949219,3 c -1.636989,0.027713 -2.9494536,1.3627761 -2.949219,3 1.28e-4,1.2712381 0.8014652,2.4043787 2,2.8281247 V 11 H 9 c -0.265199,5.1e-5 -0.5195203,0.105433 -0.7070312,0.292969 l -2,2 c -0.3904241,0.390507 -0.3904241,1.023555 0,1.414062 0.390507,0.390424 1.0235556,0.390424 1.4140624,0 L 9.4140625,13 H 11 v 2.382812 l -3.4472656,1.722657 c -0.494088,0.246972 -0.6943537,0.847766 -0.4472656,1.341797 0.246972,0.494088 0.8477658,0.694352 1.3417968,0.447265 l 4.0000004,-2 C 12.786047,16.72509 13.000026,16.378791 13,16 h 1.013672 c -0.0025,-0.264333 0.0273,-0.525961 0.123047,-0.761719 0.211054,-0.519656 0.670756,-0.964389 1.25,-1.152343 C 15.265289,14.03461 15.13572,14.000011 15,14 h -2 v -1 h 2 c 0.265199,-5.1e-5 0.519519,-0.105433 0.707031,-0.292969 l 2,-2 c 0.390423,-0.390507 0.390423,-1.023555 0,-1.4140619 -0.180268,-0.180535 -0.422722,-0.2853418 -0.677734,-0.2929688 -0.275315,-0.00791 -0.541705,0.098076 -0.736328,0.2929688 L 14.585938,11 H 13 v -0.173828 c 1.197859,-0.423507 1.999045,-1.5556505 2,-2.8261717 0,-1.6568542 -1.343146,-3 -3,-3 -0.01693,-1.433e-4 -0.03385,-1.433e-4 -0.05078,0 z m 4.041015,9.9902337 c -0.897417,2.35e-4 -1.340377,1.090886 -0.697265,1.716797 L 17.585938,19 15.292969,21.292969 c -0.98168,0.942508 0.471554,2.395741 1.414062,1.414062 L 19,20.414062 l 2.292969,2.292969 c 0.942508,0.981681 2.395742,-0.471553 1.414062,-1.414062 L 20.414062,19 22.707031,16.707031 c 0.654103,-0.635816 0.185243,-1.743687 -0.726562,-1.716797 -0.259799,0.0077 -0.506378,0.116321 -0.6875,0.302735 L 19,17.585938 16.707031,15.292969 C 16.51876,15.099435 16.260236,14.99025 15.990234,14.990234 Z"
       sodipodi:nodetypes="sssscccsssssscccssccccccccccccccccccsccccccccccccccccccccccccccccccc" />
  </g>
</svg>
