<?xml version="1.0" encoding="UTF-8" standalone="no"?>
<!-- Created with Inkscape (http://www.inkscape.org/) -->

<svg
   xmlns:dc="http://purl.org/dc/elements/1.1/"
   xmlns:cc="http://creativecommons.org/ns#"
   xmlns:rdf="http://www.w3.org/1999/02/22-rdf-syntax-ns#"
   xmlns:svg="http://www.w3.org/2000/svg"
   xmlns="http://www.w3.org/2000/svg"
   xmlns:sodipodi="http://sodipodi.sourceforge.net/DTD/sodipodi-0.dtd"
   xmlns:inkscape="http://www.inkscape.org/namespaces/inkscape"
   width="24px"
   height="24px"
   viewBox="0 0 24 24"
   version="1.1"
   id="SVGRoot"
   inkscape:version="0.92.4 (5da689c313, 2019-01-14)"
   sodipodi:docname="plugin-refresh.svg">
  <defs
     id="defs2928" />
  <sodipodi:namedview
     id="base"
     pagecolor="#ffffff"
     bordercolor="#666666"
     borderopacity="1.0"
     inkscape:pageopacity="0.0"
     inkscape:pageshadow="2"
     inkscape:zoom="15.084945"
     inkscape:cx="12"
     inkscape:cy="8.8658008"
     inkscape:document-units="px"
     inkscape:current-layer="layer1"
     showgrid="true"
     inkscape:window-width="1920"
     inkscape:window-height="1017"
     inkscape:window-x="-8"
     inkscape:window-y="-8"
     inkscape:window-maximized="1"
     inkscape:grid-bbox="true">
    <inkscape:grid
       type="xygrid"
       id="grid3484" />
  </sodipodi:namedview>
  <metadata
     id="metadata2931">
    <rdf:RDF>
      <cc:Work
         rdf:about="">
        <dc:format>image/svg+xml</dc:format>
        <dc:type
           rdf:resource="http://purl.org/dc/dcmitype/StillImage" />
        <dc:title></dc:title>
      </cc:Work>
    </rdf:RDF>
  </metadata>
  <g
     inkscape:label="Layer 1"
     inkscape:groupmode="layer"
     id="layer1">
    <path
       inkscape:connector-curvature="0"
       style="opacity:1;fill:#000000;fill-opacity:1;fill-rule:evenodd;stroke:none;stroke-width:2;stroke-linecap:round;stroke-linejoin:round;stroke-miterlimit:4;stroke-dasharray:none;paint-order:stroke fill markers"
       d="M 10,0 C 7.790861,0 6,1.79086 6,4 H 2 C 0.892,4 0,4.892 0,6 v 4 c 2.209139,0 4,1.79086 4,4 0,2.20914 -1.790861,4 -4,4 v 4 c 0,1.108 0.892,2 2,2 h 4 c 0,-2.20914 1.790861,-4 4,-4 2.209139,0 4,1.79086 4,4 h 4 c 0.135189,0 0.267002,-0.0157 0.394531,-0.041 C 15.92809,23.65719 14,21.5444 14,19 v -0.002 c 0.0029,-1.99097 1.226024,-3.70837 3,-4.5 V 14 c 2.33e-4,-0.53013 0.414085,-0.96797 0.943359,-0.99805 0.235155,-0.0136 0.467556,0.0563 0.65625,0.19727 l 1.916016,1.43555 c 0.299004,-0.15296 0.654821,-0.14559 0.947266,0.0195 0.734667,0.41593 1.331659,1.00708 1.765625,1.69922 C 23.728195,15.67042 23.998309,14.84637 24,14 24,11.79086 22.209139,10 20,10 V 6 C 20,4.892 19.108,4 18,4 H 14 C 14,1.79086 12.209139,0 10,0 Z m 8,14 v 1.13281 A 4,4 0 0 0 15,19 a 4,4 0 0 0 4,4 4,4 0 0 0 4,-4 4,4 0 0 0 -2.029297,-3.47461 l -0.837891,0.69727 A 3,3 0 0 1 22,19 3,3 0 0 1 19,22 3,3 0 0 1 16,19 3,3 0 0 1 18,16.17383 V 17 l 2,-1.5 z"
       id="rect1431-0" />
  </g>
</svg>
