<?xml version="1.0" encoding="UTF-8" standalone="no"?>
<!-- Created with Inkscape (http://www.inkscape.org/) -->

<svg
   xmlns:dc="http://purl.org/dc/elements/1.1/"
   xmlns:cc="http://creativecommons.org/ns#"
   xmlns:rdf="http://www.w3.org/1999/02/22-rdf-syntax-ns#"
   xmlns:svg="http://www.w3.org/2000/svg"
   xmlns="http://www.w3.org/2000/svg"
   xmlns:sodipodi="http://sodipodi.sourceforge.net/DTD/sodipodi-0.dtd"
   xmlns:inkscape="http://www.inkscape.org/namespaces/inkscape"
   width="24px"
   height="24px"
   viewBox="0 0 24 24"
   version="1.1"
   id="SVGRoot"
   inkscape:version="0.92.4 (5da689c313, 2019-01-14)"
   sodipodi:docname="plugin-install.svg">
  <defs
     id="defs2928" />
  <sodipodi:namedview
     id="base"
     pagecolor="#ffffff"
     bordercolor="#666666"
     borderopacity="1.0"
     inkscape:pageopacity="0.0"
     inkscape:pageshadow="2"
     inkscape:zoom="21.333333"
     inkscape:cx="12"
     inkscape:cy="8.8658008"
     inkscape:document-units="px"
     inkscape:current-layer="layer1"
     showgrid="true"
     inkscape:window-width="1920"
     inkscape:window-height="1017"
     inkscape:window-x="-8"
     inkscape:window-y="-8"
     inkscape:window-maximized="1"
     inkscape:grid-bbox="true">
    <inkscape:grid
       type="xygrid"
       id="grid3484" />
  </sodipodi:namedview>
  <metadata
     id="metadata2931">
    <rdf:RDF>
      <cc:Work
         rdf:about="">
        <dc:format>image/svg+xml</dc:format>
        <dc:type
           rdf:resource="http://purl.org/dc/dcmitype/StillImage" />
        <dc:title></dc:title>
      </cc:Work>
    </rdf:RDF>
  </metadata>
  <g
     inkscape:label="Layer 1"
     inkscape:groupmode="layer"
     id="layer1">
    <path
       style="opacity:1;fill:#000000;fill-opacity:1;fill-rule:evenodd;stroke:none;stroke-width:2;stroke-linecap:round;stroke-linejoin:round;stroke-miterlimit:4;stroke-dasharray:none;paint-order:stroke fill markers"
       d="M 10 0 A 4 4 0 0 0 6 4 L 2 4 C 0.892 4 0 4.892 0 6 L 0 10 A 4 4 0 0 1 4 14 A 4 4 0 0 1 0 18 L 0 22 C 0 23.108 0.892 24 2 24 L 6 24 A 4 4 0 0 1 10 20 A 4 4 0 0 1 14 24 L 17 24 L 17 21 L 14 21 L 14 17 L 17 17 L 17 14 L 21 14 L 21 17 L 22.638672 17 A 4 4 0 0 0 24 14 A 4 4 0 0 0 20 10 L 20 6 C 20 4.892 19.108 4 18 4 L 14 4 A 4 4 0 0 0 10 0 z M 18 15 L 18 18 L 15 18 L 15 20 L 18 20 L 18 23 L 20 23 L 20 20 L 23 20 L 23 18 L 20 18 L 20 15 L 18 15 z "
       id="rect1431-3" />
  </g>
</svg>
