<?xml version="1.0" encoding="UTF-8" standalone="no"?>
<!-- Created with Inkscape (http://www.inkscape.org/) -->

<svg
   xmlns:dc="http://purl.org/dc/elements/1.1/"
   xmlns:cc="http://creativecommons.org/ns#"
   xmlns:rdf="http://www.w3.org/1999/02/22-rdf-syntax-ns#"
   xmlns:svg="http://www.w3.org/2000/svg"
   xmlns="http://www.w3.org/2000/svg"
   xmlns:sodipodi="http://sodipodi.sourceforge.net/DTD/sodipodi-0.dtd"
   xmlns:inkscape="http://www.inkscape.org/namespaces/inkscape"
   width="24px"
   height="24px"
   viewBox="0 0 24 24"
   version="1.1"
   id="SVGRoot"
   inkscape:version="0.92.4 (5da689c313, 2019-01-14)"
   sodipodi:docname="presets.svg">
  <defs
     id="defs2928" />
  <sodipodi:namedview
     id="base"
     pagecolor="#ffffff"
     bordercolor="#666666"
     borderopacity="1.0"
     inkscape:pageopacity="0.0"
     inkscape:pageshadow="2"
     inkscape:zoom="15.084945"
     inkscape:cx="12"
     inkscape:cy="8.8658008"
     inkscape:document-units="px"
     inkscape:current-layer="layer1"
     showgrid="true"
     inkscape:window-width="1920"
     inkscape:window-height="1017"
     inkscape:window-x="-8"
     inkscape:window-y="-8"
     inkscape:window-maximized="1"
     inkscape:grid-bbox="true">
    <inkscape:grid
       type="xygrid"
       id="grid3484" />
  </sodipodi:namedview>
  <metadata
     id="metadata2931">
    <rdf:RDF>
      <cc:Work
         rdf:about="">
        <dc:format>image/svg+xml</dc:format>
        <dc:type
           rdf:resource="http://purl.org/dc/dcmitype/StillImage" />
        <dc:title></dc:title>
      </cc:Work>
    </rdf:RDF>
  </metadata>
  <g
     inkscape:label="Layer 1"
     inkscape:groupmode="layer"
     id="layer1">
    <path
       style="opacity:1;fill:#000000;fill-opacity:1;fill-rule:evenodd;paint-order:stroke fill markers"
       d="M 4 0 C 3.446 0 3 0.446 3 1 L 3 3 L 5 3 L 5 1 C 5 0.446 4.554 0 4 0 z M 12 0 C 11.446 0 11 0.446 11 1 L 11 14 L 13 14 L 13 1 C 13 0.446 12.554 0 12 0 z M 20 0 C 19.446 0 19 0.446 19 1 L 19 5 L 21 5 L 21 1 C 21 0.446 20.554 0 20 0 z M 1.5 4 C 0.669 4 0 4.669 0 5.5 C 0 6.331 0.669 7 1.5 7 L 6.5 7 C 7.331 7 8 6.331 8 5.5 C 8 4.669 7.331 4 6.5 4 L 1.5 4 z M 17.5 6 C 16.669 6 16 6.669 16 7.5 C 16 8.331 16.669 9 17.5 9 L 22.5 9 C 23.331 9 24 8.331 24 7.5 C 24 6.669 23.331 6 22.5 6 L 17.5 6 z M 3 8 L 3 23 C 3 23.554 3.446 24 4 24 C 4.554 24 5 23.554 5 23 L 5 8 L 3 8 z M 19 10 L 19 23 C 19 23.554 19.446 24 20 24 C 20.554 24 21 23.554 21 23 L 21 10 L 19 10 z M 9.5 15 C 8.669 15 8 15.669 8 16.5 C 8 17.331 8.669 18 9.5 18 L 14.5 18 C 15.331 18 16 17.331 16 16.5 C 16 15.669 15.331 15 14.5 15 L 9.5 15 z M 11 19 L 11 23 C 11 23.554 11.446 24 12 24 C 12.554 24 13 23.554 13 23 L 13 19 L 11 19 z "
       id="rect2558" />
  </g>
</svg>
