<svg id="SVGRoot" width="24px" height="24px" version="1.1" viewBox="0 0 24 24" xmlns="http://www.w3.org/2000/svg">
 <path d="m10 0c-0.554 0-1 0.446-1 1v1.4727a10 10 0 0 0-1.9141 0.83203l-1.0762-1.0059c-0.40482-0.3782-1.0339-0.35794-1.4121 0.04687l-2.7324 2.9238c-0.3782 0.40482-0.35599 1.0359 0.04883 1.4141l1.0762 1.0059a10 10 0 0 0-0.52734 1.3106h-1.4629c-0.554 0-1 0.446-1 1v4c0 0.554 0.446 1 1 1h1.4727a10 10 0 0 0 0.51562 1.3125l-1.0742 1.0039c-0.40482 0.3782-0.42703 1.0092-0.04883 1.4141l2.7324 2.9238c0.3782 0.40482 1.0073 0.42508 1.4121 0.04687l1.0723-1.002a10 10 0 0 0 1.918 0.8379v1.4629c0 0.554 0.446 1 1 1h4c0.554 0 1-0.446 1-1v-1.4727a10 10 0 0 0 1.9141-0.83203l1.0762 1.0059c0.40482 0.3782 1.0339 0.35794 1.4121-0.04687l2.7324-2.9238c0.3782-0.40482 0.35599-1.0359-0.04883-1.4141l-1.0762-1.0059a10 10 0 0 0 0.52734-1.3105h1.4629c0.554 0 1-0.446 1-1v-4c0-0.554-0.446-1-1-1h-1.4727a10 10 0 0 0-0.51562-1.3125l1.0742-1.0039c0.40482-0.3782 0.42703-1.0092 0.04883-1.4141l-2.7324-2.9238c-0.3782-0.40482-1.0073-0.42508-1.4121-0.04687l-1.0723 1.002a10 10 0 0 0-1.918-0.8379v-1.4629c0-0.554-0.446-1-1-1zm2 8a4 4 0 0 1 4 4 4 4 0 0 1-4 4 4 4 0 0 1-4-4 4 4 0 0 1 4-4z" style="paint-order:stroke fill markers;stroke-linecap:round;stroke-linejoin:round;stroke-width:4"/>
</svg>
